
<svg width="121px" height="45px" viewBox="0 0 121 45" version="1.1" xmlns="http://www.w3.org/2000/svg" xmlns:xlink="http://www.w3.org/1999/xlink">
    <g id="Page-1" stroke="none" stroke-width="1" fill="none" fill-rule="evenodd">
        <g id="DMV_MOTION_LOGO_white" fill="#FFFFFF" fill-rule="nonzero">
            <g id="Group" transform="translate(4.000000, 7.000000)">
                <polygon id="Path" points="13.9493671 8.55822734 9.3164557 8.94723768 13.5443038 9.25844595 12.1772152 11.696244 24.0253165 11.696244 25.721519 8.55822734"></polygon>
                <path d="M30.7341772,9.85492846 C30.3797468,10.477345 30,11.0997615 29.6708861,11.7221781 L41.6202532,11.7221781 C42.0759494,10.8922893 42.3544304,10.3736089 42.4050633,10.3217409 C42.7848101,9.72525835 43.0632911,9.12877583 43.3164557,8.58416137 L31.3670886,8.58416137 C31.1898734,8.9731717 30.9620253,9.41405008 30.7341772,9.85492846 Z" id="Path"></path>
                <path d="M27.8481013,15.119535 C27.8481013,15.119535 27.6962025,15.4048092 27.443038,15.8975556 L39.3164557,15.8975556 C40.0253165,14.6008545 40.7088608,13.3819555 41.2405063,12.4223967 L29.2911392,12.4223967 C28.4556962,13.92657 27.8481013,15.119535 27.8481013,15.119535 Z" id="Path"></path>
                <path d="M26.7848101,17.0645866 C26.0759494,18.3353537 25.1139241,20.0469992 24.1772152,21.5771065 C23.3417722,22.9256757 22.6329114,23.7814984 21.6202532,23.7814984 C19.9240506,23.7814984 17.5949367,23.6777623 17.5949367,23.6777623 L21.1392405,17.0645866 L9.16455696,17.0645866 L9.16455696,17.0645866 L9.16455696,17.0645866 L9.16455696,17.0645866 L9.16455696,17.0645866 L5.3164557,17.4017289 L8.86075949,17.6351351 L6.53164557,21.7586447 L0,22.095787 L6.2278481,22.3291932 L2.50632911,28.9423688 C2.50632911,28.9423688 18.8101266,29.072039 26.3037975,28.9423688 C32.6329114,28.8126987 34.3037975,25.0003975 34.3037975,25.0003975 C34.3037975,25.0003975 36.5316456,20.928756 38.6582278,17.0905207 L26.7848101,17.0905207 L26.7848101,17.0645866 Z" id="Path"></path>
                <polygon id="Path" points="11.7721519 12.3964626 11.7721519 12.3964626 5.24050633 12.6298688 11.4683544 12.9670111 9.82278481 15.8975556 21.7721519 15.8975556 23.6455696 12.3964626"></polygon>
                <path d="M38.7848101,0 C36.3037975,0 18.7341772,0 18.7341772,0 L17.4683544,2.25625994 L42.9620253,2.25625994 C41.9240506,0.80395469 40.2278481,0 38.7848101,0 Z" id="Path"></path>
                <path d="M43.9493671,5.03120032 C43.8734177,4.09757552 43.5949367,3.2676868 43.1898734,2.5674682 L17.3164557,2.5674682 L12.5822785,2.93054452 L16.9873418,3.13801669 L15.9240506,5.03120032 L43.9493671,5.03120032 L43.9493671,5.03120032 Z" id="Path"></path>
                <path d="M15.6962025,5.42021065 L9.13924051,5.75735294 L15.4177215,5.91295707 L14.2278481,8.0395469 L25.9746835,8.0395469 L26.9113924,6.30196741 C26.9113924,6.30196741 29.2658228,6.30196741 30.4303797,6.30196741 C31.5443038,6.30196741 31.7468354,7.07998808 31.5189873,8.0395469 L43.5189873,8.0395469 C43.8481013,7.1059221 44,6.22416534 44,5.42021065 L15.6962025,5.42021065 L15.6962025,5.42021065 Z" id="Path"></path>
            </g>
            <g id="Group" transform="translate(75.000000, 7.000000)">
                <polygon id="Path" points="7.13930348 12.0654545 7.13930348 12.04 4.7170398 12.2436364 6.93532338 12.5490909 5.71144279 15.4254545 17.3128109 15.4254545 18.358209 12.0654545"></polygon>
                <polygon id="Path" points="8.72014925 8.34909091 8.69465174 8.34909091 8.69465174 8.34909091 6.29788557 8.55272727 8.51616915 8.75636364 7.41977612 11.3781818 18.5621891 11.3781818 19.4800995 8.34909091"></polygon>
                <polygon id="Path" points="22.0043532 0.152727273 21.9788557 0.152727273 22.0043532 0 12.238806 0 11.3718905 2.06181818 21.4179104 2.06181818"></polygon>
                <polygon id="Path" points="11.244403 2.36727273 11.244403 2.36727273 11.244403 2.36727273 11.244403 2.36727273 11.244403 2.36727273 8.00621891 2.72363636 11.0149254 2.90181818 10.2245025 4.76 20.60199 4.76 21.3414179 2.36727273"></polygon>
                <polygon id="Path" points="16.9813433 16.5709091 16.9558458 16.5963636 16.9558458 16.5709091 5.22699005 16.5709091 5.22699005 16.5709091 5.22699005 16.5709091 2.93221393 16.8763636 4.99751244 17.08 3.26368159 21.1527273 0 21.4072727 3.085199 21.5854545 0.356965174 28 11.6268657 28 21.9788557 28 29.755597 16.5709091"></polygon>
                <polygon id="Path" points="10.0715174 5.14181818 10.0715174 5.14181818 7.08830846 5.47272727 9.86753731 5.62545455 8.92412935 7.84 19.6330846 7.84 20.4745025 5.14181818"></polygon>
                <polygon id="Path" points="27.9197761 2.36727273 27.9197761 2.36727273 25.2935323 2.62181818 27.6393035 2.74909091 26.0584577 4.76 37.7618159 4.76 39.3936567 2.36727273"></polygon>
                <polyline id="Path" points="40.89801 0 29.7300995 0 28.1492537 2.06181818 39.5976368 2.06181818 41 0"></polyline>
                <polygon id="Path" points="25.7779851 5.14181818 25.7779851 5.14181818 23.0497512 5.44727273 25.4465174 5.57454545 23.6871891 7.84 35.6710199 7.84 37.5068408 5.14181818"></polygon>
                <polygon id="Path" points="23.3302239 8.34909091 23.3047264 8.34909091 20.4745025 8.52727273 23.0497512 8.68 20.9844527 11.3781818 33.2742537 11.3781818 35.3395522 8.34909091"></polygon>
                <polygon id="Path" points="17.8482587 15.4254545 30.5205224 15.4254545 32.8152985 12.0654545 20.449005 12.0654545"></polygon>
            </g>
            <g id="Group" transform="translate(40.000000, 7.000000)">
                <polygon id="Path" points="26.4407172 0.229090909 26.4152689 0.229090909 26.4407172 0 15.9814922 0 14.8108733 2.06181818 26.3643725 2.06181818"></polygon>
                <polygon id="Path" points="6.54019665 16.5709091 6.54019665 16.5709091 6.51474841 16.5709091 6.51474841 16.5709091 6.51474841 16.5709091 4.24985541 16.8509091 6.26026605 17.0290909 3.8935801 21.1781818 0.279930596 21.4327273 3.63909774 21.6109091 0 28 11.2481203 28 15.8033545 19.4218182 15.5997687 27.6945455 15.5997687 27.6945455 15.5997687 27.6945455 23.9722383 19.9818182 19.8241758 28 31.708502 28 36.7218045 16.5709091"></polygon>
                <polygon id="Path" points="9.11046848 12.0654545 6.13302487 12.2181818 8.85598612 12.4981818 7.17640254 15.4254545 37.2307692 15.4254545 38.7067669 12.0654545"></polygon>
                <polygon id="Path" points="11.2226721 8.34909091 8.44881434 8.57818182 10.9427415 8.80727273 9.49219202 11.3781818 39.0121457 11.3781818 40.335454 8.34909091"></polygon>
                <polygon id="Path" points="44 0 43.8982071 0 33.4389821 0 31.6067091 2.06181818 43.0838635 2.06181818"></polygon>
                <polygon id="Path" points="13.0549451 5.14181818 13.0549451 5.14181818 13.0549451 5.14181818 9.28860613 5.47272727 12.7750145 5.62545455 11.5026027 7.84 26.1862348 7.84 26.2625795 5.14181818"></polygon>
                <polygon id="Path" points="14.7599769 2.36727273 10.5355697 2.67272727 14.3528051 2.87636364 13.2585309 4.76 26.2880278 4.76 26.3643725 2.36727273"></polygon>
                <polygon id="Path" points="31.3267785 2.36727273 31.3267785 2.36727273 27.0005784 2.72363636 30.843262 2.90181818 29.1891267 4.76 41.8877964 4.76 42.9566223 2.36727273"></polygon>
                <polygon id="Path" points="28.9091961 5.14181818 26.8224407 5.32 28.6038172 5.42181818 26.4407172 7.84 40.5390399 7.84 41.735107 5.14181818"></polygon>
            </g>
            <g id="Group" transform="translate(7.000000, 38.000000)">
                <path d="M0,0.0526315789 L1.52801358,0.0526315789 C2.9286927,0.0526315789 3.82003396,1.05263158 3.82003396,2.36842105 C3.82003396,3.68421053 2.90322581,4.68421053 1.52801358,4.68421053 L0,4.68421053 L0,0.0526315789 Z M1.55348048,4.18421053 C2.64855688,4.18421053 3.2852292,3.36842105 3.2852292,2.39473684 C3.2852292,1.39473684 2.67402377,0.578947368 1.55348048,0.578947368 L0.58573854,0.578947368 L0.58573854,4.18421053 L1.55348048,4.18421053 Z" id="Shape"></path>
                <path d="M6.2139219,1.26315789 C7.20713073,1.26315789 7.76740238,2.05263158 7.76740238,3.05263158 L7.76740238,3.18421053 L5.14431239,3.18421053 C5.19524618,3.81578947 5.60271647,4.34210526 6.31578947,4.34210526 C6.69779287,4.34210526 7.05432937,4.18421053 7.3089983,3.92105263 L7.56366723,4.26315789 C7.23259762,4.60526316 6.79966044,4.78947368 6.26485569,4.78947368 C5.29711375,4.78947368 4.60950764,4.07894737 4.60950764,3.02631579 C4.60950764,2.05263158 5.29711375,1.26315789 6.2139219,1.26315789 Z M5.14431239,2.81578947 L7.28353141,2.81578947 C7.28353141,2.31578947 6.9524618,1.68421053 6.2139219,1.68421053 C5.52631579,1.68421053 5.16977929,2.28947368 5.14431239,2.81578947 Z" id="Shape"></path>
                <path d="M8.68421053,5.97368421 L8.68421053,1.34210526 L9.19354839,1.34210526 L9.19354839,1.84210526 C9.42275042,1.5 9.83022071,1.26315789 10.2886248,1.26315789 C11.1544992,1.26315789 11.7402377,1.92105263 11.7402377,3.02631579 C11.7402377,4.10526316 11.1544992,4.78947368 10.2886248,4.78947368 C9.85568761,4.78947368 9.44821732,4.57894737 9.19354839,4.21052632 L9.19354839,6 L8.68421053,6 L8.68421053,5.97368421 Z M10.1612903,1.71052632 C9.75382003,1.71052632 9.37181664,1.94736842 9.19354839,2.23684211 L9.19354839,3.76315789 C9.37181664,4.05263158 9.75382003,4.31578947 10.1612903,4.31578947 C10.8234295,4.31578947 11.2054329,3.76315789 11.2054329,3.02631579 C11.2054329,2.26315789 10.8234295,1.71052632 10.1612903,1.71052632 Z" id="Shape"></path>
                <path d="M14.6943973,4.31578947 C14.4142615,4.63157895 14.057725,4.78947368 13.6247878,4.78947368 C13.0645161,4.78947368 12.4787776,4.39473684 12.4787776,3.68421053 C12.4787776,2.92105263 13.0645161,2.57894737 13.6247878,2.57894737 C14.057725,2.57894737 14.4397284,2.73684211 14.6943973,3.02631579 L14.6943973,2.42105263 C14.6943973,1.97368421 14.3378608,1.71052632 13.8794567,1.71052632 C13.4974533,1.71052632 13.1663837,1.86842105 12.8862479,2.18421053 L12.6570458,1.81578947 C13.0135823,1.44736842 13.4210526,1.26315789 13.9558574,1.26315789 C14.6434635,1.26315789 15.2037351,1.57894737 15.2037351,2.39473684 L15.2037351,4.71052632 L14.6943973,4.71052632 L14.6943973,4.31578947 Z M14.6943973,3.34210526 C14.4906621,3.05263158 14.1595925,2.92105263 13.803056,2.92105263 C13.344652,2.92105263 13.0135823,3.23684211 13.0135823,3.65789474 C13.0135823,4.07894737 13.344652,4.39473684 13.803056,4.39473684 C14.1595925,4.39473684 14.4906621,4.26315789 14.6943973,3.97368421 L14.6943973,3.34210526 Z" id="Shape"></path>
                <path d="M16.2988115,1.34210526 L16.8081494,1.34210526 L16.8081494,1.89473684 C17.0628183,1.55263158 17.4448217,1.28947368 17.9032258,1.28947368 L17.9032258,1.81578947 C17.852292,1.78947368 17.7758913,1.78947368 17.6994907,1.78947368 C17.3938879,1.78947368 16.9609508,2.05263158 16.8081494,2.31578947 L16.8081494,4.68421053 L16.2988115,4.68421053 L16.2988115,1.34210526 Z" id="Path"></path>
                <path d="M18.7181664,4 L18.7181664,1.81578947 L18.1833616,1.81578947 L18.1833616,1.36842105 L18.7181664,1.36842105 L18.7181664,0.421052632 L19.2275042,0.421052632 L19.2275042,1.34210526 L19.8896435,1.34210526 L19.8896435,1.78947368 L19.2275042,1.78947368 L19.2275042,3.86842105 C19.2275042,4.13157895 19.3293718,4.28947368 19.5585739,4.28947368 C19.7113752,4.28947368 19.8387097,4.23684211 19.8896435,4.15789474 L20.0424448,4.55263158 C19.9151104,4.68421053 19.7368421,4.76315789 19.4312394,4.76315789 C18.9728353,4.78947368 18.7181664,4.5 18.7181664,4 Z" id="Path"></path>
                <path d="M24.6264856,2.42105263 C24.6264856,2 24.4482173,1.73684211 24.0152801,1.73684211 C23.6842105,1.73684211 23.327674,2 23.1494058,2.26315789 L23.1494058,4.71052632 L22.6400679,4.71052632 L22.6400679,2.42105263 C22.6400679,2 22.4617997,1.73684211 22.0288625,1.73684211 C21.6977929,1.73684211 21.3412564,2 21.1629881,2.26315789 L21.1629881,4.71052632 L20.6536503,4.71052632 L20.6536503,1.34210526 L21.1629881,1.34210526 L21.1629881,1.81578947 C21.2903226,1.60526316 21.7232598,1.23684211 22.2071307,1.23684211 C22.7164686,1.23684211 22.9966044,1.52631579 23.0730051,1.86842105 C23.2512733,1.55263158 23.6842105,1.23684211 24.1680815,1.23684211 C24.75382,1.23684211 25.0848896,1.57894737 25.0848896,2.26315789 L25.0848896,4.68421053 L24.5755518,4.68421053 L24.5755518,2.42105263 L24.6264856,2.42105263 Z" id="Path"></path>
                <path d="M27.6570458,1.26315789 C28.6502547,1.26315789 29.2105263,2.05263158 29.2105263,3.05263158 L29.2105263,3.18421053 L26.5874363,3.18421053 C26.6383701,3.81578947 27.0458404,4.34210526 27.7589134,4.34210526 C28.1409168,4.34210526 28.4974533,4.18421053 28.7521222,3.92105263 L29.0067912,4.26315789 C28.6757216,4.60526316 28.2427844,4.78947368 27.7079796,4.78947368 C26.7402377,4.78947368 26.0526316,4.07894737 26.0526316,3.02631579 C26.0526316,2.05263158 26.7147708,1.26315789 27.6570458,1.26315789 Z M26.5874363,2.81578947 L28.7266553,2.81578947 C28.7266553,2.31578947 28.3955857,1.68421053 27.6570458,1.68421053 C26.9439728,1.68421053 26.6129032,2.28947368 26.5874363,2.81578947 Z" id="Shape"></path>
                <path d="M32.3174873,2.5 C32.3174873,1.92105263 32.0373514,1.71052632 31.5789474,1.71052632 C31.1714771,1.71052632 30.8149406,1.97368421 30.6112054,2.23684211 L30.6112054,4.68421053 L30.1018676,4.68421053 L30.1018676,1.31578947 L30.6112054,1.31578947 L30.6112054,1.78947368 C30.8404075,1.5 31.2733447,1.21052632 31.7572156,1.21052632 C32.4448217,1.21052632 32.8013582,1.55263158 32.8013582,2.28947368 L32.8013582,4.65789474 L32.2920204,4.65789474 L32.2920204,2.5 L32.3174873,2.5 Z" id="Path"></path>
                <path d="M34.0237691,4 L34.0237691,1.81578947 L33.4889643,1.81578947 L33.4889643,1.36842105 L34.0237691,1.36842105 L34.0237691,0.421052632 L34.533107,0.421052632 L34.533107,1.34210526 L35.1952462,1.34210526 L35.1952462,1.78947368 L34.533107,1.78947368 L34.533107,3.86842105 C34.533107,4.13157895 34.6349745,4.28947368 34.8641766,4.28947368 C35.0169779,4.28947368 35.1443124,4.23684211 35.1952462,4.15789474 L35.3480475,4.55263158 C35.2207131,4.68421053 35.0424448,4.76315789 34.7368421,4.76315789 C34.278438,4.78947368 34.0237691,4.5 34.0237691,4 Z" id="Path"></path>
                <path d="M37.6655348,3 C37.6655348,2.02631579 38.2767402,1.23684211 39.2699491,1.23684211 C40.2631579,1.23684211 40.8743633,2.02631579 40.8743633,3 C40.8743633,3.97368421 40.2631579,4.76315789 39.2699491,4.76315789 C38.2767402,4.78947368 37.6655348,3.97368421 37.6655348,3 Z M40.3395586,3 C40.3395586,2.31578947 39.9575552,1.71052632 39.2699491,1.71052632 C38.582343,1.71052632 38.1748727,2.31578947 38.1748727,3 C38.1748727,3.68421053 38.5568761,4.28947368 39.2699491,4.28947368 C39.9575552,4.31578947 40.3395586,3.71052632 40.3395586,3 Z" id="Shape"></path>
                <path d="M41.9439728,1.78947368 L41.4091681,1.78947368 L41.4091681,1.34210526 L41.9439728,1.34210526 L41.9439728,1.07894737 C41.9439728,0.394736842 42.3259762,0 42.8862479,0 C43.0645161,0 43.2427844,0.0263157895 43.3701188,0.105263158 L43.2427844,0.5 C43.1663837,0.447368421 43.0645161,0.421052632 42.9626486,0.421052632 C42.6315789,0.421052632 42.4533107,0.657894737 42.4533107,1.07894737 L42.4533107,1.34210526 L43.1154499,1.34210526 L43.1154499,1.78947368 L42.4533107,1.78947368 L42.4533107,4.68421053 L41.9439728,4.68421053 L41.9439728,1.78947368 L41.9439728,1.78947368 Z" id="Path"></path>
                <polygon id="Path" points="49.4821732 0.842105263 47.9541596 4.71052632 47.7249576 4.71052632 46.196944 0.842105263 46.196944 4.71052632 45.6366723 4.71052632 45.6366723 0.0789473684 46.426146 0.0789473684 47.8268251 3.60526316 49.2275042 0.0789473684 50.0169779 0.0789473684 50.0169779 4.71052632 49.4567063 4.71052632 49.4567063 0.842105263"></polygon>
                <path d="M50.9847199,3 C50.9847199,2.02631579 51.5959253,1.23684211 52.5891341,1.23684211 C53.582343,1.23684211 54.1935484,2.02631579 54.1935484,3 C54.1935484,3.97368421 53.582343,4.76315789 52.5891341,4.76315789 C51.6213922,4.78947368 50.9847199,3.97368421 50.9847199,3 Z M53.6842105,3 C53.6842105,2.31578947 53.3022071,1.71052632 52.614601,1.71052632 C51.9269949,1.71052632 51.5195246,2.31578947 51.5195246,3 C51.5195246,3.68421053 51.901528,4.28947368 52.614601,4.28947368 C53.3022071,4.31578947 53.6842105,3.71052632 53.6842105,3 Z" id="Shape"></path>
                <path d="M55.237691,4 L55.237691,1.81578947 L54.7028862,1.81578947 L54.7028862,1.36842105 L55.237691,1.36842105 L55.237691,0.421052632 L55.7470289,0.421052632 L55.7470289,1.34210526 L56.4091681,1.34210526 L56.4091681,1.78947368 L55.7470289,1.78947368 L55.7470289,3.86842105 C55.7470289,4.13157895 55.8488964,4.28947368 56.0780985,4.28947368 C56.2308998,4.28947368 56.3582343,4.23684211 56.4091681,4.15789474 L56.5619694,4.55263158 C56.434635,4.68421053 56.2563667,4.76315789 55.950764,4.76315789 C55.466893,4.78947368 55.237691,4.5 55.237691,4 Z" id="Path"></path>
                <path d="M57.0203735,3 C57.0203735,2.02631579 57.6315789,1.23684211 58.6247878,1.23684211 C59.6179966,1.23684211 60.229202,2.02631579 60.229202,3 C60.229202,3.97368421 59.6179966,4.76315789 58.6247878,4.76315789 C57.6315789,4.78947368 57.0203735,3.97368421 57.0203735,3 Z M59.6943973,3 C59.6943973,2.31578947 59.3123939,1.71052632 58.6247878,1.71052632 C57.9371817,1.71052632 57.5297114,2.31578947 57.5297114,3 C57.5297114,3.68421053 57.9117148,4.28947368 58.6247878,4.28947368 C59.3123939,4.31578947 59.6943973,3.71052632 59.6943973,3 Z" id="Shape"></path>
                <path d="M61.1460102,1.34210526 L61.655348,1.34210526 L61.655348,1.89473684 C61.910017,1.55263158 62.2920204,1.28947368 62.7504244,1.28947368 L62.7504244,1.81578947 C62.6994907,1.78947368 62.62309,1.78947368 62.5466893,1.78947368 C62.2410866,1.78947368 61.8081494,2.05263158 61.655348,2.31578947 L61.655348,4.68421053 L61.1460102,4.68421053 L61.1460102,1.34210526 Z" id="Path"></path>
                <polygon id="Path" points="64.8641766 0.0526315789 65.5008489 0.0526315789 67.0033956 4.05263158 68.5059423 0.0526315789 69.1426146 0.0526315789 67.3344652 4.68421053 66.6468591 4.68421053"></polygon>
                <path d="M70.8488964,1.26315789 C71.8421053,1.26315789 72.4023769,2.05263158 72.4023769,3.05263158 L72.4023769,3.18421053 L69.7792869,3.18421053 C69.8302207,3.81578947 70.237691,4.34210526 70.950764,4.34210526 C71.3327674,4.34210526 71.6893039,4.18421053 71.9439728,3.92105263 L72.1986418,4.26315789 C71.8675722,4.60526316 71.434635,4.78947368 70.8998302,4.78947368 C69.9320883,4.78947368 69.2444822,4.07894737 69.2444822,3.02631579 C69.2444822,2.05263158 69.9320883,1.26315789 70.8488964,1.26315789 Z M69.7792869,2.81578947 L71.9185059,2.81578947 C71.9185059,2.31578947 71.5874363,1.68421053 70.8488964,1.68421053 C70.1612903,1.68421053 69.8047538,2.28947368 69.7792869,2.81578947 Z" id="Shape"></path>
                <path d="M75.5348048,2.47368421 C75.5348048,1.89473684 75.229202,1.71052632 74.7962649,1.71052632 C74.4142615,1.71052632 74.0322581,1.97368421 73.8285229,2.23684211 L73.8285229,4.68421053 L73.3191851,4.68421053 L73.3191851,0.0526315789 L73.8285229,0.0526315789 L73.8285229,1.81578947 C74.057725,1.52631579 74.4906621,1.23684211 75,1.23684211 C75.6876061,1.23684211 76.0441426,1.57894737 76.0441426,2.31578947 L76.0441426,4.68421053 L75.5348048,4.68421053 L75.5348048,2.47368421 L75.5348048,2.47368421 Z" id="Path"></path>
                <path d="M77.0628183,0.421052632 C77.0628183,0.236842105 77.2935876,0.0789473684 77.5628183,0.0789473684 C77.8320491,0.0789473684 78.0628183,0.236842105 78.0628183,0.421052632 C78.0628183,0.605263158 77.8320491,0.763157895 77.5628183,0.763157895 C77.2935876,0.763157895 77.0628183,0.605263158 77.0628183,0.421052632 Z M77.178203,1.34210526 L77.9474337,1.34210526 L77.9474337,4.71052632 L77.178203,4.71052632 L77.178203,1.34210526 Z" id="Shape"></path>
                <path d="M80.1952462,1.26315789 C80.7809847,1.26315789 81.1375212,1.52631579 81.3921902,1.84210526 L81.0611205,2.15789474 C80.8573854,1.84210526 80.5772496,1.71052632 80.24618,1.71052632 C79.5585739,1.71052632 79.1256367,2.26315789 79.1256367,3 C79.1256367,3.73684211 79.5585739,4.28947368 80.24618,4.28947368 C80.5772496,4.28947368 80.8573854,4.15789474 81.0611205,3.84210526 L81.3921902,4.15789474 C81.1375212,4.5 80.7809847,4.73684211 80.1952462,4.73684211 C79.2275042,4.73684211 78.565365,3.97368421 78.565365,2.97368421 C78.565365,2.02631579 79.2275042,1.26315789 80.1952462,1.26315789 Z" id="Path"></path>
                <polygon id="Path" points="82.1816638 0.0526315789 82.6910017 0.0526315789 82.6910017 4.68421053 82.1816638 4.68421053"></polygon>
                <path d="M85.2122241,1.26315789 C86.2054329,1.26315789 86.7657046,2.05263158 86.7657046,3.05263158 L86.7657046,3.18421053 L84.1426146,3.18421053 C84.1935484,3.81578947 84.6010187,4.34210526 85.3140917,4.34210526 C85.6960951,4.34210526 86.0526316,4.18421053 86.3073005,3.92105263 L86.5619694,4.26315789 C86.2308998,4.60526316 85.7979626,4.78947368 85.2631579,4.78947368 C84.295416,4.78947368 83.6078098,4.07894737 83.6078098,3.02631579 C83.6078098,2.05263158 84.295416,1.26315789 85.2122241,1.26315789 Z M84.1426146,2.81578947 L86.2818336,2.81578947 C86.2818336,2.31578947 85.950764,1.68421053 85.2122241,1.68421053 C84.524618,1.68421053 84.1680815,2.28947368 84.1426146,2.81578947 Z" id="Shape"></path>
                <path d="M87.6570458,3.86842105 C87.860781,4.13157895 88.2937182,4.34210526 88.7266553,4.34210526 C89.2359932,4.34210526 89.4906621,4.10526316 89.4906621,3.78947368 C89.4906621,3.42105263 89.0831919,3.31578947 88.6502547,3.18421053 C88.089983,3.05263158 87.4787776,2.89473684 87.4787776,2.21052632 C87.4787776,1.68421053 87.9117148,1.23684211 88.7011885,1.23684211 C89.2614601,1.23684211 89.6434635,1.44736842 89.8981324,1.71052632 L89.6689304,2.07894737 C89.4651952,1.84210526 89.1086587,1.65789474 88.7011885,1.65789474 C88.2682513,1.65789474 87.9881154,1.86842105 87.9881154,2.15789474 C87.9881154,2.47368421 88.3701188,2.57894737 88.7775891,2.68421053 C89.3378608,2.81578947 90,2.97368421 90,3.73684211 C90,4.28947368 89.5670628,4.76315789 88.7266553,4.76315789 C88.1918506,4.76315789 87.7334465,4.60526316 87.4023769,4.23684211 L87.6570458,3.86842105 Z" id="Path"></path>
            </g>
            <g id="Group" transform="translate(23.000000, 0.000000)">
                <path d="M0.766309976,3.475 C0.766309976,3.6 0.791853642,3.725 0.817397308,3.825 C0.868484639,3.925 0.919571971,4.025 0.996202969,4.1 C1.07283397,4.175 1.17500863,4.225 1.30272696,4.275 C1.43044529,4.325 1.55816362,4.325 1.71142561,4.325 C1.86468761,4.325 1.99240594,4.3 2.12012427,4.275 C2.2478426,4.25 2.35001726,4.2 2.42664826,4.125 C2.50327925,4.05 2.55436659,3.975 2.60545392,3.9 C2.65654125,3.825 2.65654125,3.725 2.65654125,3.625 C2.65654125,3.45 2.57991025,3.3 2.45219192,3.2 C2.32447359,3.1 2.1712116,3.025 1.96686227,2.95 C1.76251294,2.875 1.55816362,2.825 1.32827062,2.75 C1.09837763,2.675 0.894028305,2.6 0.689678978,2.5 C0.485329651,2.4 0.332067656,2.25 0.204349327,2.075 C0.0766309976,1.9 0,1.675 0,1.375 C0,1.2 0.0510873317,1.025 0.127718329,0.875 C0.204349327,0.7 0.332067656,0.575 0.459785986,0.45 C0.613047981,0.325 0.791853642,0.225 0.996202969,0.15 C1.2005523,0.075 1.43044529,0.025 1.68588195,0.025 C1.91577494,0.025 2.12012427,0.075 2.32447359,0.15 C2.52882292,0.225 2.68208492,0.325 2.83534691,0.475 C2.96306524,0.6 3.09078357,0.775 3.16741457,0.95 C3.24404556,1.125 3.2951329,1.325 3.2951329,1.55 L2.55436659,1.55 C2.55436659,1.425 2.52882292,1.3 2.50327925,1.2 C2.45219192,1.1 2.40110459,1 2.32447359,0.925 C2.2478426,0.85 2.1712116,0.8 2.04349327,0.75 C1.94131861,0.7 1.81360028,0.7 1.71142561,0.7 C1.58370728,0.7 1.45598895,0.725 1.32827062,0.75 C1.22609596,0.8 1.1239213,0.85 1.0472903,0.9 C0.970659303,0.975 0.919571971,1.05 0.868484639,1.125 C0.817397308,1.2 0.817397308,1.3 0.817397308,1.375 C0.817397308,1.55 0.894028305,1.7 1.02174663,1.8 C1.14946496,1.9 1.30272696,1.975 1.50707629,2.05 C1.71142561,2.125 1.91577494,2.2 2.14566793,2.25 C2.37556093,2.325 2.57991025,2.4 2.78425958,2.5 C2.98860891,2.6 3.1418709,2.75 3.26958923,2.925 C3.39730756,3.1 3.47393856,3.35 3.47393856,3.625 C3.47393856,3.8 3.42285123,3.975 3.34622023,4.125 C3.26958923,4.275 3.1418709,4.425 3.01415257,4.55 C2.86089058,4.675 2.68208492,4.775 2.47773559,4.85 C2.27338626,4.925 2.0179496,4.975 1.76251294,4.975 C1.50707629,4.975 1.25163963,4.925 1.0472903,4.85 C0.842940973,4.775 0.664135312,4.675 0.510873317,4.525 C0.357611322,4.4 0.255436659,4.225 0.178805661,4.05 C0.102174663,3.875 0.0510873317,3.65 0.0510873317,3.425 L0.766309976,3.425 L0.766309976,3.475 Z" id="Path"></path>
                <polygon id="Path" points="5.2364515 4.95 5.2364515 0.725 3.72937522 0.725 3.72937522 0.05 7.4842941 0.05 7.4842941 0.725 5.97721781 0.725 5.97721781 4.95"></polygon>
                <path d="M7.27994477,4.95 L9.17017604,0.05 L9.83431136,0.05 L11.7245426,4.95 L10.932689,4.95 L10.4984467,3.825 L8.48049707,3.825 L8.04625475,4.95 L7.27994477,4.95 Z M8.76147739,3.15 L10.2685537,3.15 L9.5022437,1.15 L8.76147739,3.15 Z" id="Shape"></path>
                <polygon id="Path" points="13.0272696 4.95 13.0272696 0.725 11.5201933 0.725 11.5201933 0.05 15.2751122 0.05 15.2751122 0.725 13.7680359 0.725 13.7680359 4.95"></polygon>
                <polygon id="Path" points="15.9903348 4.95 15.9903348 0.05 19.2599241 0.05 19.2599241 0.725 16.7311011 0.725 16.7311011 2.1 19.0555747 2.1 19.0555747 2.775 16.7311011 2.775 16.7311011 4.275 19.3365551 4.275 19.3365551 4.95 15.9903348 4.95"></polygon>
                <path d="M23.1681049,4.8 C22.8871246,4.675 22.631688,4.5 22.401795,4.275 C22.171902,4.05 22.01864,3.775 21.8909216,3.475 C21.7632033,3.175 21.6865723,2.85 21.6865723,2.5 C21.6865723,2.15 21.7632033,1.825 21.8909216,1.525 C22.01864,1.225 22.1974456,0.95 22.401795,0.725 C22.631688,0.5 22.8615809,0.325 23.1681049,0.2 C23.4490853,0.075 23.7556093,0 24.0621332,0 C24.3686572,0 24.6751812,0.075 24.9561615,0.2 C25.2371419,0.325 25.4925785,0.5 25.7224715,0.725 C25.9523645,0.95 26.1056265,1.225 26.2333448,1.525 C26.3610632,1.825 26.4376942,2.15 26.4376942,2.5 C26.4376942,2.85 26.3610632,3.175 26.2333448,3.475 C26.1056265,3.775 25.9268208,4.05 25.7224715,4.275 C25.4925785,4.5 25.2626855,4.675 24.9561615,4.8 C24.6751812,4.925 24.3686572,5 24.0621332,5 C23.7556093,5 23.4746289,4.925 23.1681049,4.8 Z M24.7007249,4.175 C24.9050742,4.075 25.0583362,3.95 25.2115982,3.8 C25.3648602,3.65 25.4670349,3.45 25.5692095,3.225 C25.6713842,3 25.6969279,2.75 25.6969279,2.5 C25.6969279,2.25 25.6458405,2 25.5692095,1.775 C25.4670349,1.55 25.3648602,1.35 25.2115982,1.2 C25.0583362,1.05 24.8795305,0.925 24.7007249,0.825 C24.4963756,0.725 24.2920262,0.7 24.0876769,0.7 C23.8833276,0.7 23.6789783,0.75 23.4746289,0.825 C23.2702796,0.925 23.1170176,1.05 22.9637556,1.2 C22.8104936,1.35 22.708319,1.55 22.6061443,1.775 C22.5039696,2 22.478426,2.25 22.478426,2.5 C22.478426,2.75 22.5295133,3 22.6061443,3.225 C22.708319,3.45 22.8104936,3.65 22.9637556,3.8 C23.1170176,3.95 23.2958233,4.075 23.4746289,4.175 C23.6789783,4.275 23.8833276,4.3 24.0876769,4.3 C24.2920262,4.3 24.4963756,4.275 24.7007249,4.175 Z" id="Shape"></path>
                <polygon id="Path" points="27.3061788 4.95 27.3061788 0.05 30.4735934 0.05 30.4735934 0.725 28.0724888 0.725 28.0724888 2.2 30.0393511 2.2 30.0393511 2.875 28.0724888 2.875 28.0724888 4.95"></polygon>
                <path d="M37.2937522,3.3 C37.2426648,3.45 37.1915775,3.6 37.1149465,3.75 C37.0383155,3.9 36.9616845,4.025 36.8595098,4.15 C36.7573352,4.275 36.6551605,4.4 36.5274422,4.5 C36.3997239,4.6 36.2720055,4.7 36.1187435,4.775 C35.9654815,4.85 35.8122195,4.9 35.6334139,4.95 C35.4546082,5 35.2758026,5 35.0969969,5 C34.7904729,5 34.4839489,4.925 34.2029686,4.8 C33.9219883,4.675 33.6665516,4.5 33.4366586,4.275 C33.2067656,4.05 33.0535036,3.775 32.9257853,3.475 C32.798067,3.175 32.721436,2.85 32.721436,2.5 C32.721436,2.15 32.798067,1.825 32.9257853,1.525 C33.0535036,1.225 33.2323093,0.95 33.4366586,0.725 C33.6665516,0.5 33.8964446,0.325 34.2029686,0.2 C34.4839489,0.075 34.7904729,0 35.0969969,0 C35.2758026,0 35.4546082,0.025 35.6334139,0.05 C35.7866759,0.1 35.9399379,0.15 36.0931999,0.225 C36.2464619,0.3 36.3741802,0.375 36.5018985,0.5 C36.6296168,0.6 36.7317915,0.725 36.8339662,0.85 C36.9361408,0.975 37.0127718,1.125 37.0894028,1.25 C37.1660338,1.375 37.2171212,1.55 37.2682085,1.7 L36.4763548,1.7 C36.4508112,1.55 36.3741802,1.425 36.2975492,1.3 C36.2209182,1.175 36.1187435,1.075 36.0165689,0.975 C35.9143942,0.875 35.7611322,0.8 35.6078702,0.75 C35.4546082,0.7 35.3013462,0.675 35.1225406,0.675 C34.9181912,0.675 34.7138419,0.725 34.5094926,0.8 C34.3051433,0.9 34.1518813,1.025 33.9986193,1.175 C33.8453573,1.325 33.7431826,1.525 33.6410079,1.75 C33.5388333,1.975 33.5132896,2.225 33.5132896,2.475 C33.5132896,2.725 33.5643769,2.975 33.6410079,3.2 C33.7431826,3.425 33.8453573,3.6 33.9986193,3.775 C34.1518813,3.95 34.3306869,4.075 34.5094926,4.15 C34.7138419,4.25 34.9181912,4.275 35.1225406,4.275 C35.3013462,4.275 35.4801519,4.25 35.6334139,4.2 C35.7866759,4.15 35.9143942,4.075 36.0421125,3.975 C36.1698309,3.875 36.2720055,3.775 36.3486365,3.65 C36.4252675,3.525 36.5018985,3.4 36.5274422,3.25 L37.2937522,3.25 L37.2937522,3.3 Z" id="Path"></path>
                <path d="M37.6002761,4.95 L39.4905074,0.05 L40.1546427,0.05 L42.044874,4.95 L41.2530204,4.95 L40.818778,3.825 L38.8008284,3.825 L38.3665861,4.95 L37.6002761,4.95 Z M39.0562651,3.15 L40.5633414,3.15 L39.7970314,1.15 L39.0562651,3.15 Z" id="Shape"></path>
                <polygon id="Path" points="42.7856403 4.95 42.7856403 0.05 43.5519503 0.05 43.5519503 4.275 45.9275112 4.275 45.9275112 4.95"></polygon>
                <polygon id="Path" points="46.7449085 4.95 46.7449085 0.05 47.5112185 0.05 47.5112185 4.95"></polygon>
                <polygon id="Path" points="48.8650328 4.95 48.8650328 0.05 52.0324474 0.05 52.0324474 0.725 49.6313428 0.725 49.6313428 2.2 51.598205 2.2 51.598205 2.875 49.6313428 2.875 49.6313428 4.95"></polygon>
                <path d="M53.9993096,4.8 C53.7183293,4.675 53.4628926,4.5 53.2329997,4.275 C53.0031067,4.05 52.8498447,3.775 52.7221263,3.475 C52.594408,3.175 52.517777,2.85 52.517777,2.5 C52.517777,2.15 52.594408,1.825 52.7221263,1.525 C52.8498447,1.225 53.0286503,0.95 53.2329997,0.725 C53.4628926,0.5 53.6927856,0.325 53.9993096,0.2 C54.28029,0.075 54.5868139,0 54.8933379,0 C55.1998619,0 55.5063859,0.075 55.7873662,0.2 C56.0683466,0.325 56.3237832,0.5 56.5536762,0.725 C56.7835692,0.95 56.9368312,1.225 57.0645495,1.525 C57.1922679,1.825 57.2688989,2.15 57.2688989,2.5 C57.2688989,2.85 57.1922679,3.175 57.0645495,3.475 C56.9368312,3.775 56.7580255,4.05 56.5536762,4.275 C56.3237832,4.5 56.0938902,4.675 55.7873662,4.8 C55.5063859,4.925 55.1998619,5 54.8933379,5 C54.5868139,5 54.28029,4.925 53.9993096,4.8 Z M55.5319296,4.175 C55.7362789,4.075 55.8895409,3.95 56.0428029,3.8 C56.1960649,3.65 56.2982396,3.45 56.4004142,3.225 C56.5025889,3 56.5281326,2.75 56.5281326,2.5 C56.5281326,2.25 56.4770452,2 56.4004142,1.775 C56.2982396,1.55 56.1960649,1.35 56.0428029,1.2 C55.8895409,1.05 55.7107352,0.925 55.5319296,0.825 C55.3531239,0.725 55.1232309,0.7 54.9188816,0.7 C54.7145323,0.7 54.5101829,0.75 54.3058336,0.825 C54.1014843,0.925 53.9482223,1.05 53.7949603,1.2 C53.6416983,1.35 53.5395236,1.55 53.437349,1.775 C53.3351743,2 53.3096307,2.25 53.3096307,2.5 C53.3096307,2.75 53.360718,3 53.437349,3.225 C53.5395236,3.45 53.6416983,3.65 53.7949603,3.8 C53.9482223,3.95 54.127028,4.075 54.3058336,4.175 C54.5101829,4.275 54.7145323,4.3 54.9188816,4.3 C55.1232309,4.325 55.3275803,4.275 55.5319296,4.175 Z" id="Shape"></path>
                <path d="M58.2906455,4.95 L58.2906455,0.05 L60.2064204,0.05 C60.4363134,0.05 60.6406628,0.1 60.8194684,0.175 C60.9982741,0.25 61.1770797,0.35 61.3303417,0.5 C61.4580601,0.625 61.5857784,0.8 61.6624094,0.975 C61.7390404,1.15 61.7901277,1.35 61.7901277,1.55 C61.7901277,1.825 61.7390404,2.05 61.6113221,2.225 C61.5091474,2.4 61.3814291,2.55 61.2281671,2.65 C61.1004487,2.75 60.8960994,2.85 60.6917501,2.95 L61.8923024,4.975 L61.0493614,4.975 L59.8998964,3.025 L59.0314118,3.025 L59.0314118,4.975 L58.2906455,4.975 L58.2906455,4.95 Z M59.0569555,2.35 L60.2064204,2.35 C60.3341388,2.35 60.4363134,2.325 60.5384881,2.3 C60.6406628,2.25 60.7172938,2.2 60.7939247,2.125 C60.8705557,2.05 60.9216431,1.975 60.9727304,1.875 C61.0238177,1.775 61.0238177,1.675 61.0238177,1.575 C61.0238177,1.45 60.9982741,1.35 60.9727304,1.25 C60.9216431,1.15 60.8705557,1.075 60.7939247,1 C60.7172938,0.925 60.6406628,0.875 60.5384881,0.825 C60.4363134,0.775 60.3341388,0.775 60.2064204,0.775 L59.0569555,0.775 L59.0569555,2.35 Z" id="Shape"></path>
                <polygon id="Path" points="62.8885054 4.95 62.8885054 0.05 63.5526407 0.05 65.9537453 3.55 65.9537453 0.05 66.7200552 0.05 66.7200552 4.95 66.0559199 4.95 63.6548153 1.45 63.6548153 4.95"></polygon>
                <polygon id="Path" points="68.0483259 4.95 68.0483259 0.05 68.8146358 0.05 68.8146358 4.95"></polygon>
                <path d="M69.5554021,4.95 L71.4456334,0.05 L72.1097687,0.05 L74,4.95 L73.2081464,4.95 L72.773904,3.825 L70.7559544,3.825 L70.3217121,4.95 L69.5554021,4.95 Z M71.0113911,3.15 L72.5184674,3.15 L71.7521574,1.15 L71.0113911,3.15 Z" id="Shape"></path>
            </g>
        </g>
    </g>
</svg>